<svg xmlns="http://www.w3.org/2000/svg" viewBox="0 0 1600 1200" role="img" aria-labelledby="title desc">
  <title id="title">Workspace setup illustration</title>
  <desc id="desc">Minimal illustration of a workstation with monitor, laptop, phone and tablet.</desc>
  <defs>
    <linearGradient id="bg" x1="0" x2="1" y1="0" y2="1">
      <stop offset="0%" stop-color="#f7f4ec"/>
      <stop offset="100%" stop-color="#ece6da"/>
    </linearGradient>
    <linearGradient id="screen" x1="0" x2="1" y1="0" y2="1">
      <stop offset="0%" stop-color="#262626"/>
      <stop offset="100%" stop-color="#101010"/>
    </linearGradient>
    <linearGradient id="accent" x1="0" x2="1" y1="0" y2="1">
      <stop offset="0%" stop-color="#d8c7a1"/>
      <stop offset="100%" stop-color="#b89d6b"/>
    </linearGradient>
  </defs>
  <rect width="1600" height="1200" rx="48" fill="url(#bg)"/>
  <g opacity="0.25">
    <circle cx="1320" cy="220" r="170" fill="#d7ccb4"/>
    <circle cx="250" cy="980" r="210" fill="#d9d0bf"/>
  </g>
  <rect x="120" y="820" width="1360" height="180" rx="32" fill="#d8cfbf"/>
  <g transform="translate(260 220)">
    <rect x="0" y="0" width="820" height="470" rx="28" fill="#1b1b1b"/>
    <rect x="24" y="24" width="772" height="422" rx="18" fill="url(#screen)"/>
    <rect x="80" y="80" width="250" height="16" rx="8" fill="#cdb68c" opacity="0.9"/>
    <rect x="80" y="126" width="430" height="18" rx="9" fill="#f5efe3" opacity="0.95"/>
    <rect x="80" y="170" width="360" height="18" rx="9" fill="#f5efe3" opacity="0.75"/>
    <rect x="80" y="248" width="290" height="128" rx="20" fill="url(#accent)"/>
    <rect x="404" y="248" width="310" height="58" rx="14" fill="#f3ede0" opacity="0.95"/>
    <rect x="404" y="326" width="250" height="18" rx="9" fill="#f3ede0" opacity="0.8"/>
    <rect x="404" y="360" width="210" height="18" rx="9" fill="#f3ede0" opacity="0.6"/>
    <rect x="346" y="470" width="128" height="56" rx="16" fill="#8a7751"/>
    <rect x="246" y="520" width="328" height="24" rx="12" fill="#b9a27b"/>
  </g>
  <g transform="translate(1080 440)">
    <rect x="0" y="0" width="280" height="190" rx="28" fill="#1a1a1a"/>
    <rect x="18" y="18" width="244" height="154" rx="18" fill="#222"/>
    <rect x="34" y="40" width="138" height="14" rx="7" fill="#cdb68c"/>
    <rect x="34" y="74" width="180" height="12" rx="6" fill="#efe7d7" opacity="0.85"/>
    <rect x="34" y="102" width="150" height="12" rx="6" fill="#efe7d7" opacity="0.6"/>
  </g>
  <g transform="translate(1010 700)">
    <rect x="0" y="0" width="160" height="260" rx="30" fill="#1b1b1b"/>
    <rect x="14" y="20" width="132" height="220" rx="22" fill="#272727"/>
    <circle cx="80" cy="18" r="4" fill="#7a7a7a"/>
    <rect x="36" y="56" width="88" height="10" rx="5" fill="#d8c7a1"/>
    <rect x="28" y="84" width="104" height="10" rx="5" fill="#f2eadc" opacity="0.85"/>
    <rect x="28" y="108" width="92" height="10" rx="5" fill="#f2eadc" opacity="0.55"/>
  </g>
  <g transform="translate(1220 720)">
    <rect x="0" y="0" width="190" height="240" rx="26" fill="#ece4d5" stroke="#8f7b55" stroke-width="10"/>
    <rect x="22" y="30" width="146" height="16" rx="8" fill="#8f7b55" opacity="0.8"/>
    <rect x="22" y="66" width="124" height="14" rx="7" fill="#8f7b55" opacity="0.45"/>
    <rect x="22" y="96" width="120" height="82" rx="18" fill="#d0bb92"/>
  </g>
  <text x="160" y="140" font-family="Arial, Helvetica, sans-serif" font-size="48" fill="#3a342a">Focused development setup</text>
</svg>
